<svg width="13" height="13" viewBox="0 0 13 13" fill="none" xmlns="http://www.w3.org/2000/svg">
<path d="M6.5 0C4.77609 0 3.12279 0.684819 1.90381 1.90381C0.684819 3.12279 0 4.77609 0 6.5C0 8.22391 0.684819 9.87721 1.90381 11.0962C3.12279 12.3152 4.77609 13 6.5 13C6.71549 13 6.92215 12.9144 7.07452 12.762C7.2269 12.6097 7.3125 12.403 7.3125 12.1875C7.3125 11.972 7.2269 11.7654 7.07452 11.613C6.92215 11.4606 6.71549 11.375 6.5 11.375C5.53582 11.375 4.59328 11.0891 3.79159 10.5534C2.98991 10.0177 2.36506 9.25637 1.99609 8.36558C1.62711 7.47479 1.53057 6.49459 1.71867 5.54893C1.90677 4.60328 2.37107 3.73464 3.05285 3.05285C3.73464 2.37107 4.60328 1.90677 5.54893 1.71867C6.49459 1.53057 7.47479 1.62711 8.36558 1.99609C9.25637 2.36506 10.0177 2.98991 10.5534 3.7916C11.0891 4.59329 11.375 5.53582 11.375 6.5V8.9375C11.375 9.15299 11.2894 9.35965 11.137 9.51202C10.9846 9.6644 10.778 9.75 10.5625 9.75C10.347 9.75 10.1403 9.6644 9.98798 9.51202C9.8356 9.35965 9.75 9.15299 9.75 8.9375V6.5C9.75 5.85721 9.55939 5.22886 9.20228 4.6944C8.84516 4.15994 8.33758 3.74338 7.74372 3.49739C7.14986 3.25141 6.49639 3.18705 5.86596 3.31245C5.23552 3.43785 4.65642 3.74738 4.2019 4.2019C3.74738 4.65642 3.43785 5.23552 3.31245 5.86596C3.18705 6.4964 3.25141 7.14986 3.49739 7.74372C3.74338 8.33758 4.15994 8.84516 4.6944 9.20228C5.22886 9.55939 5.85721 9.75 6.5 9.75C7.08576 9.74714 7.6596 9.58427 8.15952 9.27898C8.24463 9.88941 8.55834 10.4447 9.03722 10.8327C9.51611 11.2207 10.1244 11.4124 10.7392 11.369C11.3541 11.3257 11.9295 11.0505 12.3491 10.5991C12.7688 10.1477 13.0014 9.55383 13 8.9375V6.5C12.9983 4.77661 12.3129 3.1243 11.0943 1.90568C9.8757 0.687064 8.22338 0.00169933 6.5 0V0ZM6.5 8.125C6.17861 8.125 5.86443 8.0297 5.5972 7.85114C5.32997 7.67258 5.12169 7.41879 4.9987 7.12186C4.8757 6.82493 4.84352 6.4982 4.90622 6.18298C4.96892 5.86776 5.12369 5.57821 5.35095 5.35095C5.57821 5.12369 5.86776 4.96892 6.18298 4.90622C6.4982 4.84352 6.82493 4.8757 7.12186 4.9987C7.41879 5.12169 7.67258 5.32997 7.85114 5.5972C8.02969 5.86443 8.125 6.17861 8.125 6.5C8.12471 6.93089 7.95341 7.34404 7.64873 7.64873C7.34404 7.95341 6.93089 8.12471 6.5 8.125Z" fill="#151515"/>
</svg>
