<svg width="13" height="13" viewBox="0 0 13 13" fill="none" xmlns="http://www.w3.org/2000/svg">
<path d="M7.03913 6.77399L7.03914 6.774L9.47654 9.2114C9.61886 9.35452 9.69863 9.54823 9.69835 9.75007C9.69807 9.95191 9.61776 10.1454 9.47504 10.2881C9.33232 10.4308 9.13883 10.5111 8.93699 10.5114C8.73519 10.5117 8.54152 10.432 8.39841 10.2897C8.39838 10.2897 8.39835 10.2896 8.39832 10.2896L7.34789 9.23918L7.26253 9.15383V9.27454V12.1881C7.26253 12.3903 7.1822 12.5843 7.0392 12.7273C6.8962 12.8703 6.70226 12.9506 6.50003 12.9506C6.2978 12.9506 6.10386 12.8703 5.96086 12.7273C5.81786 12.5843 5.73753 12.3903 5.73753 12.1881V9.27454V9.15383L5.65217 9.23918L4.60174 10.2896C4.60172 10.2896 4.60171 10.2896 4.60169 10.2897C4.45858 10.432 4.26489 10.5117 4.06307 10.5114C3.86123 10.5111 3.66774 10.4308 3.52502 10.2881C3.3823 10.1454 3.30199 9.95191 3.30171 9.75007C3.30143 9.54825 3.38118 9.35455 3.52348 9.21144C3.52349 9.21143 3.52351 9.21141 3.52352 9.2114L5.96092 6.774L5.96093 6.77399C6.03171 6.70317 6.11575 6.64699 6.20826 6.60867C6.30076 6.57034 6.3999 6.55061 6.50003 6.55061C6.60016 6.55061 6.6993 6.57034 6.7918 6.60867C6.8843 6.64699 6.96835 6.70317 7.03913 6.77399Z" fill="black" stroke="white" stroke-width="0.1"/>
<path d="M8.9875 4.06316C8.98812 3.45134 8.76301 2.8608 8.35529 2.40464C7.94758 1.94848 7.38591 1.65876 6.77786 1.59096C6.16982 1.52317 5.55813 1.68207 5.05996 2.03723C4.56178 2.39239 4.21214 2.91885 4.07799 3.51577C4.05545 3.61539 4.01327 3.70951 3.95393 3.79263C3.89458 3.87578 3.81925 3.94626 3.73234 3.99994L3.7586 4.04247L3.73248 3.99986C3.64549 4.0532 3.54864 4.08847 3.44772 4.10356C3.34723 4.11859 3.24474 4.1133 3.14633 4.08802C3.05012 4.05773 2.95224 4.03301 2.85317 4.014L2.85335 4.01309L2.84367 4.01311C2.50736 4.01361 2.18496 4.14744 1.94715 4.38525C1.70933 4.62307 1.57551 4.94546 1.57499 5.28178L1.57501 5.28264C1.57953 5.5703 1.68382 5.84746 1.87006 6.06673C2.05607 6.28574 2.31229 6.43343 2.59502 6.48463C2.79054 6.5284 2.961 6.64739 3.0695 6.81586C3.17818 6.98462 3.21593 7.18942 3.17457 7.38583C3.13321 7.58224 3.01607 7.75443 2.84856 7.86502C2.68106 7.97562 2.4767 8.01571 2.27983 7.97659L2.2796 7.97654C1.65334 7.85514 1.08865 7.52007 0.682004 7.02857C0.275378 6.53709 0.0519926 5.91969 0.0500001 5.28182C0.0510514 4.55218 0.337012 3.85181 0.846944 3.32995C1.3569 2.80806 2.05052 2.50598 2.77998 2.48809L2.81184 2.48731L2.82458 2.4581C3.16547 1.67669 3.74645 1.0242 4.48324 0.595305C5.22003 0.166407 6.07431 -0.016597 6.92213 0.0728419C7.76996 0.162281 8.56725 0.519511 9.19833 1.09271C9.8294 1.6659 10.2614 2.42525 10.4318 3.2606L10.4399 3.30061H10.4808H10.5625C11.1957 3.30061 11.803 3.55215 12.2507 3.99989C12.6985 4.44763 12.95 5.0549 12.95 5.68811C12.95 6.32131 12.6985 6.92858 12.2507 7.37632C11.803 7.82407 11.1957 8.07561 10.5625 8.07561C10.3603 8.07561 10.1663 7.99527 10.0233 7.85228C9.88033 7.70928 9.8 7.51533 9.8 7.31311C9.8 7.11088 9.88033 6.91693 10.0233 6.77394C10.1663 6.63094 10.3603 6.55061 10.5625 6.55061C10.7912 6.55061 11.0106 6.45974 11.1724 6.29799C11.3341 6.13624 11.425 5.91686 11.425 5.68811C11.425 5.45936 11.3341 5.23998 11.1724 5.07823C11.0106 4.91648 10.7912 4.82561 10.5625 4.82561H9.75H9.74997C9.64983 4.82566 9.55065 4.80598 9.45812 4.76768C9.36559 4.72938 9.28151 4.67322 9.2107 4.60241C9.13988 4.5316 9.08372 4.44752 9.04542 4.35499C9.00713 4.26246 8.98745 4.1633 8.9875 4.06316ZM8.9875 4.06316L8.9375 4.06311L8.9875 4.06313C8.9875 4.06314 8.9875 4.06315 8.9875 4.06316Z" fill="black" stroke="white" stroke-width="0.1"/>
</svg>
