<svg width="25" height="25" viewBox="0 0 25 25" fill="none" xmlns="http://www.w3.org/2000/svg">
<g filter="url(#filter0_i)">
<path d="M0.0400391 0.0195312H25V24.9795L0.0400391 24.8357V0.0195312Z" fill="#F0FFF8"/>
<path d="M9.98831 6.58887H7.45672C7.18102 6.58887 6.95752 6.81237 6.95752 7.08807V9.63659C6.95752 9.9123 7.18102 10.1358 7.45672 10.1358H9.98831C10.264 10.1358 10.4875 9.9123 10.4875 9.63659V7.08807C10.4875 6.81237 10.264 6.58887 9.98831 6.58887Z" fill="#7A8EA0"/>
<path d="M14.107 6.58887H11.5754C11.2997 6.58887 11.0762 6.81237 11.0762 7.08807V9.63659C11.0762 9.91229 11.2997 10.1358 11.5754 10.1358H14.107C14.3827 10.1358 14.6062 9.91229 14.6062 9.63659V7.08807C14.6062 6.81237 14.3827 6.58887 14.107 6.58887Z" fill="#7A8EA0"/>
<path d="M18.2261 6.58887H15.6945C15.4188 6.58887 15.1953 6.81237 15.1953 7.08807V9.63659C15.1953 9.91229 15.4188 10.1358 15.6945 10.1358H18.2261C18.5018 10.1358 18.7253 9.91229 18.7253 9.63659V7.08807C18.7253 6.81237 18.5018 6.58887 18.2261 6.58887Z" fill="#7A8EA0"/>
<path d="M9.98782 10.7275H7.45623C7.18053 10.7275 6.95703 10.951 6.95703 11.2267V13.7753C6.95703 14.051 7.18053 14.2745 7.45623 14.2745H9.98782C10.2635 14.2745 10.487 14.051 10.487 13.7753V11.2267C10.487 10.951 10.2635 10.7275 9.98782 10.7275Z" fill="#7A8EA0"/>
<path d="M9.98782 14.8652H7.45623C7.18053 14.8652 6.95703 15.0887 6.95703 15.3644V17.913C6.95703 18.1887 7.18053 18.4122 7.45623 18.4122H9.98782C10.2635 18.4122 10.487 18.1887 10.487 17.913V15.3644C10.487 15.0887 10.2635 14.8652 9.98782 14.8652Z" fill="#7A8EA0"/>
<path d="M14.107 10.7275H11.5754C11.2997 10.7275 11.0762 10.951 11.0762 11.2267V13.7753C11.0762 14.051 11.2997 14.2745 11.5754 14.2745H14.107C14.3827 14.2745 14.6062 14.051 14.6062 13.7753V11.2267C14.6062 10.951 14.3827 10.7275 14.107 10.7275Z" fill="#7A8EA0"/>
<path d="M14.107 14.8652H11.5754C11.2997 14.8652 11.0762 15.0887 11.0762 15.3644V17.913C11.0762 18.1887 11.2997 18.4122 11.5754 18.4122H14.107C14.3827 18.4122 14.6062 18.1887 14.6062 17.913V15.3644C14.6062 15.0887 14.3827 14.8652 14.107 14.8652Z" fill="#7A8EA0"/>
<path d="M18.2261 10.7275H15.6945C15.4188 10.7275 15.1953 10.951 15.1953 11.2267V13.7753C15.1953 14.051 15.4188 14.2745 15.6945 14.2745H18.2261C18.5018 14.2745 18.7253 14.051 18.7253 13.7753V11.2267C18.7253 10.951 18.5018 10.7275 18.2261 10.7275Z" fill="#7A8EA0"/>
<path d="M18.2261 14.8652H15.6945C15.4188 14.8652 15.1953 15.0887 15.1953 15.3644V17.913C15.1953 18.1887 15.4188 18.4122 15.6945 18.4122H18.2261C18.5018 18.4122 18.7253 18.1887 18.7253 17.913V15.3644C18.7253 15.0887 18.5018 14.8652 18.2261 14.8652Z" fill="#7A8EA0"/>
</g>
<defs>
<filter id="filter0_i" x="0.0400391" y="0.0195312" width="24.96" height="24.96" filterUnits="userSpaceOnUse" color-interpolation-filters="sRGB">
<feFlood flood-opacity="0" result="BackgroundImageFix"/>
<feBlend mode="normal" in="SourceGraphic" in2="BackgroundImageFix" result="shape"/>
<feColorMatrix in="SourceAlpha" type="matrix" values="0 0 0 0 0 0 0 0 0 0 0 0 0 0 0 0 0 0 127 0" result="hardAlpha"/>
<feOffset/>
<feGaussianBlur stdDeviation="1.85702"/>
<feComposite in2="hardAlpha" operator="arithmetic" k2="-1" k3="1"/>
<feColorMatrix type="matrix" values="0 0 0 0 0 0 0 0 0 0 0 0 0 0 0 0 0 0 0.05 0"/>
<feBlend mode="normal" in2="shape" result="effect1_innerShadow"/>
</filter>
</defs>
</svg>
