<svg width="236" height="47" viewBox="0 0 236 47" fill="none" xmlns="http://www.w3.org/2000/svg">
<path d="M41.125 31.3333V15.6666C41.1243 14.9798 40.943 14.3052 40.5993 13.7106C40.2555 13.1159 39.7615 12.6221 39.1667 12.2787L25.4583 4.44539C24.8629 4.10163 24.1875 3.92065 23.5 3.92065C22.8125 3.92065 22.1371 4.10163 21.5417 4.44539L7.83333 12.2787C7.23851 12.6221 6.74446 13.1159 6.40074 13.7106C6.05701 14.3052 5.8757 14.9798 5.875 15.6666V31.3333C5.8757 32.0202 6.05701 32.6947 6.40074 33.2894C6.74446 33.884 7.23851 34.3778 7.83333 34.7212L21.5417 42.5546C22.1371 42.8983 22.8125 43.0793 23.5 43.0793C24.1875 43.0793 24.8629 42.8983 25.4583 42.5546L39.1667 34.7212C39.7615 34.3778 40.2555 33.884 40.5993 33.2894C40.943 32.6947 41.1243 32.0202 41.125 31.3333Z" stroke="black" stroke-width="3" stroke-linecap="round" stroke-linejoin="round"/>
<path d="M6.40369 13.6301L23.4999 23.5197L40.5962 13.6301" stroke="black" stroke-width="3" stroke-linecap="round" stroke-linejoin="round"/>
<path d="M23.5 43.24V23.5" stroke="black" stroke-width="3" stroke-linecap="round" stroke-linejoin="round"/>
<path d="M52.11 38L68.245 13.15H71.815L77.415 38H73.46L72.025 31.49H60.93L56.73 38H52.11ZM69.19 18.715L63.275 27.85H71.22L69.19 18.715ZM80.3364 38L84.0464 20.5H87.8964L87.2664 23.335C87.7797 22.355 88.5147 21.6083 89.4714 21.095C90.4281 20.5817 91.4547 20.325 92.5514 20.325C93.1114 20.325 93.5897 20.3717 93.9864 20.465L93.1814 24.42C92.5514 24.21 91.9447 24.105 91.3614 24.105C90.1714 24.105 89.0631 24.5833 88.0364 25.54C87.0331 26.4733 86.3447 27.78 85.9714 29.46L84.1864 38H80.3364ZM101.716 38.175C99.8023 38.175 98.344 37.5683 97.3407 36.355C96.3607 35.1417 96.0923 33.4617 96.5357 31.315L98.1107 23.93H94.5057L95.2057 20.5H98.8457L99.8957 15.635H103.746L102.696 20.5H107.701L106.966 23.93H101.961L100.351 31.595C99.954 33.6717 100.794 34.71 102.871 34.71C103.501 34.71 104.119 34.6283 104.726 34.465L104.026 37.895C103.326 38.0817 102.556 38.175 101.716 38.175ZM120.772 38.42C117.225 38.42 114.367 37.3117 112.197 35.095C110.05 32.8783 108.977 30.125 108.977 26.835C108.977 24.245 109.537 21.8883 110.657 19.765C111.777 17.6417 113.422 15.9383 115.592 14.655C117.785 13.3717 120.305 12.73 123.152 12.73C126.092 12.73 128.577 13.5583 130.607 15.215C132.66 16.8483 133.943 18.9367 134.457 21.48H130.047C129.557 20.01 128.682 18.8433 127.422 17.98C126.185 17.1167 124.645 16.685 122.802 16.685C120.072 16.685 117.773 17.63 115.907 19.52C114.063 21.41 113.142 23.72 113.142 26.45C113.142 28.8533 113.842 30.79 115.242 32.26C116.665 33.73 118.637 34.465 121.157 34.465C122.93 34.465 124.517 34.045 125.917 33.205C127.317 32.3417 128.437 31.1633 129.277 29.67H133.687C132.73 32.33 131.132 34.4533 128.892 36.04C126.675 37.6267 123.968 38.42 120.772 38.42ZM144.78 34.78C146.39 34.78 147.732 34.2083 148.805 33.065C149.902 31.9217 150.45 30.5217 150.45 28.865C150.45 27.2783 150.007 26.03 149.12 25.12C148.257 24.1867 147.078 23.72 145.585 23.72C143.975 23.72 142.633 24.2917 141.56 25.435C140.487 26.5783 139.95 27.9783 139.95 29.635C139.95 31.245 140.382 32.505 141.245 33.415C142.132 34.325 143.31 34.78 144.78 34.78ZM144.465 38.385C141.805 38.385 139.728 37.5683 138.235 35.935C136.765 34.2783 136.03 32.2833 136.03 29.95C136.03 27.1733 136.94 24.8517 138.76 22.985C140.58 21.095 142.96 20.15 145.9 20.15C148.56 20.15 150.625 20.9667 152.095 22.6C153.588 24.2333 154.335 26.2167 154.335 28.55C154.335 31.3267 153.425 33.66 151.605 35.55C149.808 37.44 147.428 38.385 144.465 38.385ZM163.524 16.685C162.8 16.685 162.182 16.44 161.669 15.95C161.179 15.4367 160.934 14.8183 160.934 14.095C160.934 13.395 161.179 12.8 161.669 12.31C162.182 11.7967 162.8 11.54 163.524 11.54C164.224 11.54 164.819 11.7967 165.309 12.31C165.822 12.8 166.079 13.395 166.079 14.095C166.079 14.8183 165.822 15.4367 165.309 15.95C164.819 16.44 164.224 16.685 163.524 16.685ZM156.489 38L160.199 20.5H164.049L160.339 38H156.489ZM165.546 38L169.256 20.5H173.106L172.651 22.565C173.981 20.955 175.801 20.15 178.111 20.15C180.165 20.15 181.693 20.9317 182.696 22.495C183.723 24.0583 183.991 25.9133 183.501 28.06L181.366 38H177.516L179.581 28.27C179.908 26.8233 179.803 25.6917 179.266 24.875C178.753 24.0583 177.89 23.65 176.676 23.65C175.37 23.65 174.238 24.105 173.281 25.015C172.348 25.925 171.683 27.2667 171.286 29.04L169.396 38H165.546ZM198.193 36.915C196.98 37.8717 195.312 38.35 193.188 38.35C191.065 38.35 189.327 37.825 187.973 36.775C186.62 35.725 185.943 34.36 185.943 32.68H189.898C189.945 33.52 190.295 34.1617 190.948 34.605C191.602 35.0483 192.407 35.27 193.363 35.27C194.157 35.27 194.822 35.0833 195.358 34.71C195.895 34.3367 196.163 33.8817 196.163 33.345C196.163 32.295 195.428 31.5133 193.958 31L191.893 30.265C189.35 29.355 188.078 27.7217 188.078 25.365C188.078 23.7317 188.662 22.46 189.828 21.55C190.995 20.6167 192.605 20.15 194.658 20.15C196.455 20.15 197.96 20.6633 199.173 21.69C200.387 22.6933 201.04 23.93 201.133 25.4H197.283C197.19 24.7 196.875 24.1633 196.338 23.79C195.825 23.4167 195.207 23.23 194.483 23.23C193.783 23.23 193.188 23.405 192.698 23.755C192.232 24.0817 191.998 24.5133 191.998 25.05C191.998 26.03 192.605 26.7417 193.818 27.185L195.673 27.85C198.59 28.9233 200.048 30.6383 200.048 32.995C200.048 34.6517 199.43 35.9583 198.193 36.915Z" fill="black"/>
</svg>
