<svg width="180" height="67" viewBox="0 0 180 67" fill="none" xmlns="http://www.w3.org/2000/svg">
<g clip-path="url(#clip0)">
<path d="M4.17188 31.3266V5.96708L6.94982 4.47534H11.1167C12.2279 4.47534 13.4317 5.46983 13.8947 5.96708V26.8514L12.5057 28.3431L6.94982 31.3266H4.17188Z" fill="#C5FDE2"/>
<path d="M6.47573 0.311501C5.21908 0.700583 4.89076 0.858647 3.99639 1.4909C3.03408 2.15964 2.07178 3.18098 1.42647 4.22664C0.883054 5.12639 0.577382 5.92887 0.226424 7.40009C0 8.34848 0 8.65246 0 27.2311C0 38.2713 0.0452848 46.3083 0.101891 46.6001C0.158497 46.8798 0.316994 47.7674 0.46417 48.5698C1.16608 52.6674 3.02276 56.5339 5.73985 59.5857C9.43057 63.7197 13.8458 65.9691 19.3366 66.5162C22.6198 66.8445 26.6614 66.0177 29.8314 64.3641C35.3448 61.4947 39.4431 56.1326 40.9262 49.8465C41.0847 49.1778 41.3111 47.8889 41.4356 46.977C41.6621 45.4085 41.662 44.8614 41.6281 35.1587C41.5941 25.2371 41.5828 24.9574 41.3564 24.1914C40.7224 22.0636 40.0658 20.8842 38.8317 19.6562C36.9751 17.808 34.9599 17.0299 32.4126 17.1758C30.9861 17.2487 30.0012 17.5405 28.7672 18.2457L27.9294 18.7321L27.7483 18.4524C27.0577 17.3825 25.4388 16.0815 24.1029 15.5222C22.1216 14.6832 19.6423 14.6711 17.6384 15.4979C17.446 15.583 17.4347 15.3641 17.4347 12.0812C17.4347 8.43359 17.3554 7.4852 16.8912 6.0383C16.2799 4.06858 14.4911 1.94078 12.5892 0.919443C10.8457 -0.0167875 8.30977 -0.272123 6.47573 0.311501ZM10.0532 6.0383C10.6306 6.29364 11.4344 7.15691 11.7288 7.83781L12.0005 8.44576V17.3946V26.3435L10.925 26.7204C9.20414 27.3284 7.3135 28.447 5.80778 29.748L5.43418 30.0641V19.3765C5.43418 9.54004 5.4455 8.6403 5.62664 8.1053C6.24931 6.23284 8.33241 5.26014 10.0532 6.0383ZM22.4273 21.0544C23.016 21.4314 23.4349 21.8812 23.7859 22.55C24.001 22.9512 24.0576 23.2552 24.0915 24.3981L24.1368 25.7721H20.831H17.5139L17.5705 24.5075C17.6271 23.085 17.8196 22.5256 18.5441 21.7232C19.28 20.8964 19.8687 20.6532 21.0688 20.714C21.7594 20.7383 22.0311 20.8113 22.4273 21.0544ZM34.2467 23.2309C34.8806 23.547 35.492 24.1914 35.8316 24.9088L36.1147 25.5167V29.9304C36.1147 33.9914 36.092 34.3805 35.8996 34.8425C35.5826 35.5842 34.9259 36.3016 34.2467 36.6542C33.3183 37.1162 33.2844 37.1041 33.2844 36.0706C33.273 33.6023 32.1862 30.9639 30.3182 28.9333L29.5144 28.0579L29.571 26.8299C29.6163 25.8572 29.6842 25.4559 29.8993 24.9817C30.6805 23.2065 32.639 22.4162 34.2467 23.2309ZM25.2803 32.0825C26.2312 32.6053 26.9558 33.4199 27.4313 34.5021C27.7709 35.2559 27.7936 35.414 27.7936 36.5934C27.7936 37.7728 27.7709 37.9309 27.4426 38.6604C26.9784 39.7182 26.1294 40.6301 25.167 41.1286L24.3972 41.5177L19.2347 41.5785L14.0723 41.6393L13.5288 42.0041C11.8646 43.1105 11.7288 45.3721 13.2345 46.7703C13.8798 47.3661 14.2987 47.4147 19.314 47.4147C24.3406 47.4147 24.8727 47.3661 26.6048 46.746C27.6238 46.3812 28.9144 45.5909 29.7521 44.8128C30.3408 44.2656 31.473 42.9281 31.473 42.7701C31.473 42.7336 31.9485 42.7214 32.5258 42.7579C33.4995 42.8187 34.4957 42.6606 35.8769 42.2351L36.1373 42.15L36.0807 44.5696C36.0241 47.3053 35.8769 48.1686 35.0957 50.2842C34.5297 51.8284 33.9976 52.8619 33.0919 54.1507C31.1786 56.8986 28.4389 58.9899 25.3595 60.0599C22.0084 61.2272 17.8422 60.9475 14.5025 59.3182C10.0193 57.1296 6.77008 52.7889 5.70589 47.5363C5.53607 46.6974 5.49079 45.98 5.49079 43.7671C5.49079 40.6058 5.604 39.9614 6.54366 37.9552C7.76635 35.3167 9.74756 33.3835 12.2835 32.3257C13.8572 31.6691 14.2987 31.6204 19.6423 31.6448L24.5104 31.6691L25.2803 32.0825Z" fill="black"/>
</g>
<path d="M110.233 28.6102V33.3521L109.644 32.8536C108.976 32.2943 108.308 31.9052 107.402 31.5769C106.904 31.3945 106.463 31.3459 105.251 31.358C103.904 31.358 103.61 31.3945 102.817 31.6863C101.538 32.1362 100.576 32.7806 99.5791 33.8384C97.813 35.7352 96.9526 38.0575 96.9526 41.0121C96.9526 43.4074 97.3941 45.0732 98.5262 46.9335C99.93 49.2072 102.161 50.6298 104.64 50.8121C106.531 50.958 107.968 50.5446 109.384 49.4625L110.233 48.8059V49.5841V50.3744H112.949H115.666V37.1213V23.8682H112.949H110.233V28.6102ZM107.04 36.5134C109.304 36.9754 110.686 39.1762 110.335 41.8025C109.927 44.9394 107.029 46.593 104.38 45.2069C102.07 43.991 101.504 39.93 103.349 37.7779C103.893 37.1456 104.482 36.7809 105.308 36.562C106.021 36.3675 106.327 36.3675 107.04 36.5134Z" fill="black"/>
<path d="M152.247 28.6218V33.3638L151.715 32.8774C150.605 31.8804 149.417 31.4184 147.718 31.3211C145.103 31.1873 142.726 32.2816 141.096 34.4094C138.718 37.4978 138.265 42.0573 139.963 45.8144C141.028 48.1854 142.941 49.9119 145.228 50.5807C146.247 50.8725 148.42 50.8725 149.36 50.5685C150.152 50.3132 151.092 49.7782 151.76 49.2067L152.236 48.7811L152.27 49.5472L152.304 50.3132L154.998 50.3496L157.681 50.374V37.1208V23.8677H154.964H152.247V28.6218ZM149.96 36.7804C150.73 37.0844 151.624 38.0084 151.998 38.8474C152.779 40.6469 152.439 43.1151 151.239 44.404C149.643 46.1184 147.005 46.1305 145.465 44.4283C144.616 43.4921 144.379 42.7382 144.379 41.0117C144.379 39.7593 144.413 39.5404 144.673 38.9447C145.624 36.7682 147.764 35.8928 149.96 36.7804Z" fill="black"/>
<path d="M86.011 31.406C84.8789 31.6249 83.6675 32.2815 82.7392 33.1691L82.2749 33.6189V32.6949V31.7708H79.5578H76.8408V41.0723V50.3738H79.5465H82.2636L82.2976 45.0482C82.3315 39.8807 82.3429 39.7227 82.5919 39.0661C82.9543 38.0934 83.4298 37.4611 84.0864 37.072C85.5242 36.2331 87.3696 36.683 88.1168 38.0448C88.6602 39.0418 88.7168 39.7591 88.7281 45.3036V50.3738L91.4226 50.3495L94.1057 50.313L94.1397 44.9631C94.1736 39.3579 94.0944 37.6435 93.7208 36.2453C93.0302 33.6676 91.4226 31.9897 89.113 31.4668C88.2866 31.2723 86.8601 31.248 86.011 31.406Z" fill="black"/>
<path d="M126.182 31.4183C124.201 31.7222 121.993 33.0597 120.815 34.6647C120.193 35.4915 119.366 37.2667 119.106 38.2758C118.823 39.3945 118.766 42.2275 119.004 43.3825C119.751 47.018 122.016 49.5106 125.457 50.5076C126.804 50.8967 129.488 50.9089 130.812 50.5198C132.714 49.9726 134.05 49.1215 135.318 47.6625C135.952 46.9329 136.676 45.79 136.575 45.6806C136.563 45.6684 135.488 45.3158 134.186 44.9146L131.831 44.1729L131.299 44.7808C130.472 45.717 129.918 45.9359 128.287 45.9359C127.212 45.9359 126.804 45.8873 126.318 45.6927C125.287 45.2793 124.45 44.3188 124.144 43.1758L124.053 42.8354H130.382C136.031 42.8354 136.699 42.8111 136.767 42.6409C136.903 42.2761 136.835 39.4796 136.665 38.6528C136.28 36.7195 135.567 35.2605 134.356 33.9716C133.88 33.4609 133.167 32.8408 132.759 32.5855C131.016 31.5034 128.48 31.0535 126.182 31.4183ZM129.091 36.3304C130.269 36.7074 131.129 37.5949 131.457 38.75L131.616 39.3093H127.835H124.053L124.212 38.8108C124.653 37.4734 125.536 36.6101 126.816 36.2696C127.393 36.1116 128.503 36.1359 129.091 36.3304Z" fill="black"/>
<path d="M168.139 31.467C164.584 32.1722 161.98 34.7742 161.052 38.5191C160.724 39.8809 160.712 42.2519 161.052 43.6258C161.867 46.9695 164.086 49.4256 167.233 50.4469C168.139 50.7387 168.445 50.7752 169.95 50.7874C171.785 50.7874 172.566 50.6415 173.913 50.0335C175.758 49.1946 177.445 47.4923 178.306 45.6077C179.075 43.9298 179.223 43.2246 179.223 41.0725C179.223 38.9933 179.098 38.3003 178.396 36.6953C176.675 32.7559 172.452 30.6037 168.139 31.467ZM171.841 36.9263C172.645 37.3397 173.415 38.2395 173.754 39.1635C174.117 40.1363 174.117 41.9844 173.754 42.9814C172.86 45.4618 169.871 46.4102 167.766 44.8903C166.611 44.0757 166.045 42.8112 166.045 41.0725C166.045 39.3459 166.599 38.0571 167.675 37.2668C168.49 36.6831 169.113 36.5129 170.234 36.5616C170.992 36.5859 171.343 36.671 171.841 36.9263Z" fill="black"/>
<path d="M55.5505 37.9598C55.5505 43.0422 55.5845 44.3189 55.7203 45.0484C56.3656 48.3313 58.0185 50.1794 60.8602 50.7387C62.932 51.1521 65.2415 50.4956 66.7359 49.0973L67.3247 48.5258V49.4499V50.374H70.0417H72.7588V41.0725V31.771H70.0417H67.336L67.302 37.1452C67.268 42.3248 67.2567 42.5558 67.0303 43.1638C66.6793 44.0635 66.1925 44.6715 65.4906 45.0849C64.9698 45.401 64.7774 45.4496 63.9849 45.4375C62.9207 45.4375 62.3546 45.1822 61.7546 44.4283C61.0074 43.4921 60.9848 43.2732 60.9848 37.206V31.771H58.2676H55.5505V37.9598Z" fill="black"/>
<defs>
<clipPath id="clip0">
<rect width="41.6444" height="66.5872" fill="white"/>
</clipPath>
</defs>
</svg>
