<?xml version="1.0" standalone="no"?>
<!DOCTYPE svg PUBLIC "-//W3C//DTD SVG 20010904//EN"
 "http://www.w3.org/TR/2001/REC-SVG-20010904/DTD/svg10.dtd">
<svg version="1.0" xmlns="http://www.w3.org/2000/svg"
 width="554.000000pt" height="841.000000pt" viewBox="0 0 554.000000 841.000000"
 preserveAspectRatio="xMidYMid meet">

<g transform="translate(0.000000,841.000000) scale(0.100000,-0.100000)"
fill="#000000" stroke="none">
<path d="M1050 8005 c-193 -53 -320 -117 -444 -225 -187 -162 -280 -318 -358
-602 l-23 -83 0 -2175 c0 -1762 3 -2189 13 -2250 39 -222 68 -357 98 -460 240
-839 966 -1536 1819 -1746 141 -34 376 -74 441 -74 30 0 54 -4 54 -10 0 -6 54
-10 141 -10 91 0 138 4 134 10 -4 6 16 10 54 10 33 0 124 11 203 25 456 79
792 220 1141 481 465 347 813 867 947 1415 16 64 41 188 57 275 l28 159 0
1190 0 1190 -33 115 c-49 169 -77 234 -148 341 -153 232 -410 408 -679 464
-106 23 -323 23 -425 1 -107 -23 -237 -71 -326 -122 l-77 -43 -20 27 c-51 66
-158 168 -229 218 -191 135 -393 199 -628 198 -139 -1 -207 -13 -354 -64 -33
-11 -61 -20 -63 -20 -1 0 -3 186 -3 414 0 446 -4 493 -56 658 -92 292 -359
562 -647 657 -170 56 -204 61 -373 60 -134 0 -172 -4 -244 -24z m424 -673 c85
-40 149 -107 195 -202 l36 -75 3 -1026 3 -1027 -53 -12 c-215 -50 -506 -203
-710 -373 l-58 -48 2 1248 3 1248 33 67 c38 78 98 143 167 184 72 42 128 54
227 50 71 -3 98 -9 152 -34z m1488 -1705 c88 -43 152 -107 195 -195 38 -75 38
-77 41 -219 l4 -143 -407 0 -408 0 5 144 c4 139 5 146 38 212 77 157 210 236
386 231 75 -2 100 -7 146 -30z m1480 -260 c83 -41 149 -105 194 -189 l39 -73
0 -510 0 -510 -33 -68 c-55 -111 -165 -202 -275 -227 l-34 -7 -6 116 c-10 188
-77 408 -173 565 -59 98 -163 225 -230 283 l-56 47 4 151 c4 144 6 153 36 217
53 109 140 186 257 225 25 8 75 12 131 10 75 -2 100 -7 146 -30z m-1282 -967
c119 -14 241 -75 328 -162 74 -74 146 -207 163 -303 41 -220 -58 -456 -244
-582 -146 -99 -121 -96 -827 -102 l-615 -6 -50 -25 c-103 -50 -175 -153 -192
-275 -12 -91 54 -231 140 -292 87 -63 90 -63 741 -63 325 0 620 5 656 10 305
44 601 212 790 446 l61 77 167 2 c169 1 189 4 380 61 l22 6 0 -198 c-1 -366
-53 -600 -199 -894 -229 -460 -628 -804 -1116 -964 -347 -114 -803 -114 -1150
0 -122 40 -313 128 -420 194 -224 137 -440 348 -591 575 -141 212 -247 482
-290 740 -27 157 -27 571 -1 699 35 171 124 375 229 520 54 77 206 230 278
283 197 142 427 231 655 251 141 13 983 14 1085 2z"/>
</g>
</svg>
