<?xml version="1.0" standalone="no"?>
<!DOCTYPE svg PUBLIC "-//W3C//DTD SVG 20010904//EN"
 "http://www.w3.org/TR/2001/REC-SVG-20010904/DTD/svg10.dtd">
<svg version="1.0" xmlns="http://www.w3.org/2000/svg"
 width="1569.000000pt" height="841.000000pt" viewBox="0 0 1569.000000 841.000000"
 preserveAspectRatio="xMidYMid meet">

<g transform="translate(0.000000,841.000000) scale(0.100000,-0.100000)"
fill="#000000" stroke="none">
<path d="M7000 5609 l0 -551 -56 51 c-154 141 -363 209 -604 198 -248 -12
-457 -100 -635 -269 -235 -222 -349 -500 -349 -853 0 -352 113 -628 348 -853
128 -121 260 -194 444 -244 104 -29 354 -32 451 -5 141 39 252 96 347 180 l54
49 0 -96 0 -96 335 0 335 0 0 1520 0 1520 -335 0 -335 0 0 -551z m-401 -899
c129 -21 257 -102 325 -205 177 -266 87 -665 -180 -796 -307 -152 -649 13
-719 346 -54 255 48 505 245 605 106 54 208 69 329 50z"/>
<path d="M12180 5609 l0 -552 -49 46 c-155 145 -367 216 -611 204 -248 -12
-457 -100 -635 -269 -234 -222 -349 -501 -349 -853 0 -164 16 -269 61 -402 99
-297 320 -539 593 -650 135 -54 204 -66 375 -66 145 -1 168 2 248 26 134 41
233 96 325 180 l42 40 0 -97 0 -96 335 0 335 0 0 1520 0 1520 -335 0 -335 0 0
-551z m-400 -900 c195 -31 352 -180 401 -379 18 -75 16 -221 -5 -299 -32 -125
-121 -247 -222 -307 -150 -89 -352 -94 -504 -13 -344 183 -345 775 0 949 107
54 208 69 330 49z"/>
<path d="M4015 5296 c-165 -32 -294 -98 -412 -209 l-53 -50 0 107 0 106 -335
0 -335 0 0 -1065 0 -1065 335 0 335 0 0 573 c0 626 2 652 59 773 40 85 100
147 180 187 62 30 72 32 176 32 100 0 115 -2 167 -28 107 -52 174 -156 198
-302 6 -34 10 -314 10 -647 l0 -588 336 0 335 0 -4 718 c-4 697 -4 720 -26
816 -77 344 -260 550 -556 627 -103 27 -311 34 -410 15z"/>
<path d="M9030 5303 c-19 -2 -70 -11 -113 -19 -501 -99 -837 -505 -864 -1044
-10 -212 24 -389 108 -569 154 -327 451 -537 841 -595 306 -46 604 9 853 157
143 84 313 259 371 379 10 21 15 40 12 43 -3 3 -137 44 -298 91 -273 79 -294
84 -304 67 -24 -43 -105 -117 -156 -143 -80 -39 -142 -52 -260 -52 -280 1
-443 108 -514 340 l-7 22 780 0 c539 0 782 3 786 11 4 5 9 72 12 147 25 631
-344 1087 -940 1162 -77 9 -231 11 -307 3z m273 -568 c84 -22 153 -60 209
-116 49 -49 100 -142 113 -206 l7 -33 -466 0 -466 0 6 28 c23 105 120 231 220
284 105 56 259 74 377 43z"/>
<path d="M14170 5295 c-483 -81 -822 -401 -921 -870 -24 -114 -27 -333 -5
-456 100 -561 589 -935 1185 -906 539 26 946 365 1057 877 14 63 19 127 19
245 0 118 -5 182 -19 245 -96 445 -414 759 -866 856 -105 22 -343 27 -450 9z
m375 -616 c155 -58 257 -172 299 -335 21 -80 21 -238 0 -317 -56 -217 -219
-350 -444 -364 -155 -9 -280 36 -382 138 -156 156 -193 442 -84 657 57 113
174 204 302 237 84 21 231 14 309 -16z"/>
<path d="M250 4582 c0 -683 4 -763 41 -922 24 -103 102 -266 161 -337 135
-161 323 -247 568 -260 248 -12 459 59 628 212 l62 57 0 -106 0 -106 335 0
335 0 0 1065 0 1065 -334 0 -335 0 -3 -597 -3 -598 -27 -77 c-46 -138 -111
-217 -218 -267 -49 -23 -67 -26 -165 -26 -98 0 -116 3 -166 26 -66 31 -122 86
-156 153 -50 99 -53 134 -53 784 l0 602 -335 0 -335 0 0 -668z"/>
</g>
</svg>
