<svg xmlns="http://www.w3.org/2000/svg" width="6538" height="3504" viewBox="0 0 6538 3504">
  <defs>
    <style>
      .cls-1 {
        fill: #151515;
        fill-rule: evenodd;
      }
    </style>
  </defs>
  <path id="apexgo" class="cls-1" d="M541.847,2231.88c111.987,0,199.088-42.65,261.3-108.38V2207h284.41V1300.88H803.15v83.5C740.935,1316.87,653.834,1276,541.847,1276c-245.3,0-440.836,202.55-440.836,477.94S296.543,2231.88,541.847,2231.88Zm51.55-252.3c-122.652,0-211.531-90.61-211.531-227.42,0-135.03,88.879-223.87,211.531-223.87s216.863,88.84,216.863,223.87C810.26,1888.97,716.049,1979.58,593.4,1979.58ZM1846.56,1276c-111.98,0-199.08,40.87-261.3,108.38v-83.5H1300.85V2580.11h284.41V2123.5c62.22,65.73,149.32,108.38,261.3,108.38,245.31,0,440.84-202.55,440.84-477.94S2091.87,1276,1846.56,1276Zm-51.55,703.58c-122.65,0-216.86-90.61-216.86-227.42,0-135.03,94.21-223.87,216.86-223.87s211.53,88.84,211.53,223.87C2006.54,1888.97,1917.67,1979.58,1795.01,1979.58Zm1096.74,252.3c241.75,0,394.62-142.14,442.62-254.08l-255.97-74.62c-30.22,55.08-85.33,92.39-181.31,92.39-145.76,0-207.98-71.07-225.76-156.35h670.15c5.33-30.2,7.11-62.18,7.11-94.17,0-261.17-174.2-469.05-474.61-469.05-289.75,0-479.95,207.88-479.95,479.71C2394.03,2038.21,2596.68,2231.88,2891.75,2231.88Zm-220.42-563.22c12.45-76.4,83.55-154.58,200.87-154.58s190.2,72.85,199.09,154.58H2671.33ZM4349.34,2207l-327.07-456.62,312.85-449.5H4016.94L3853.4,1535.4l-163.54-234.52H3371.68l312.85,449.5L3357.46,2207h319.96l175.98-246.96L4029.38,2207h319.96Zm702.15-906.12v83.5C4985.72,1313.31,4900.4,1276,4800.85,1276c-257.74,0-442.61,184.78-442.61,460.17,0,257.63,184.87,460.17,442.61,460.17,99.55,0,184.87-37.31,250.64-108.38v87.06c0,113.71-58.66,198.99-184.87,198.99-97.76,0-161.76-33.75-200.86-94.16l-245.31,88.83c74.66,135.03,213.31,236.31,439.06,236.31,291.52,0,476.39-177.68,476.39-431.75V1300.88H5051.49Zm-200.86,641.39c-126.21,0-211.54-81.73-211.54-206.1s85.33-206.1,211.54-206.1c124.42,0,207.97,81.73,207.97,206.1S4975.05,1942.27,4850.63,1942.27Zm1132.3,289.61c282.64,0,487.06-206.1,487.06-477.94S6265.57,1276,5982.93,1276s-487.05,206.1-487.05,477.94S5700.3,2231.88,5982.93,2231.88Zm0-255.85c-129.76,0-211.53-94.17-211.53-222.09s81.77-222.09,211.53-222.09,211.54,94.16,211.54,222.09S6112.7,1976.03,5982.93,1976.03Z"/>
</svg>
