<svg width="181" height="67" viewBox="0 0 181 67" fill="none" xmlns="http://www.w3.org/2000/svg">
<path d="M4.17188 31.3266V5.96708L6.94982 4.47534H11.1167C12.2279 4.47534 13.4317 5.46983 13.8947 5.96708V26.8514L12.5057 28.3431L6.94982 31.3266H4.17188Z" fill="#C5FDE2"/>
<path d="M6.47573 0.311501C5.21908 0.700583 4.89076 0.858647 3.99639 1.4909C3.03408 2.15964 2.07178 3.18098 1.42647 4.22664C0.883054 5.12639 0.577382 5.92887 0.226424 7.40009C0 8.34848 0 8.65246 0 27.2311C0 38.2713 0.0452848 46.3083 0.101891 46.6001C0.158497 46.8798 0.316994 47.7674 0.46417 48.5698C1.16608 52.6674 3.02276 56.5339 5.73985 59.5857C9.43057 63.7197 13.8458 65.9691 19.3366 66.5162C22.6198 66.8445 26.6614 66.0177 29.8314 64.3641C35.3448 61.4947 39.4431 56.1326 40.9262 49.8465C41.0847 49.1778 41.3111 47.8889 41.4356 46.977C41.6621 45.4085 41.662 44.8614 41.6281 35.1587C41.5941 25.2371 41.5828 24.9574 41.3564 24.1914C40.7224 22.0636 40.0658 20.8842 38.8317 19.6562C36.9751 17.808 34.9599 17.0299 32.4126 17.1758C30.9861 17.2487 30.0012 17.5405 28.7672 18.2457L27.9294 18.7321L27.7483 18.4524C27.0577 17.3825 25.4388 16.0815 24.1029 15.5222C22.1216 14.6832 19.6423 14.6711 17.6384 15.4979C17.446 15.583 17.4347 15.3641 17.4347 12.0812C17.4347 8.43359 17.3554 7.4852 16.8912 6.0383C16.2799 4.06858 14.4911 1.94078 12.5892 0.919443C10.8457 -0.0167874 8.30977 -0.272123 6.47573 0.311501ZM10.0532 6.0383C10.6306 6.29364 11.4344 7.15691 11.7288 7.83781L12.0005 8.44576V17.3946V26.3435L10.925 26.7204C9.20414 27.3284 7.3135 28.447 5.80778 29.748L5.43418 30.0641V19.3765C5.43418 9.54004 5.4455 8.6403 5.62664 8.1053C6.24931 6.23284 8.33241 5.26014 10.0532 6.0383ZM22.4273 21.0544C23.016 21.4314 23.4349 21.8812 23.7859 22.55C24.001 22.9512 24.0576 23.2552 24.0915 24.3981L24.1368 25.7721H20.831H17.5139L17.5705 24.5075C17.6271 23.085 17.8196 22.5256 18.5441 21.7232C19.28 20.8964 19.8687 20.6532 21.0688 20.714C21.7594 20.7383 22.0311 20.8113 22.4273 21.0544ZM34.2467 23.2309C34.8806 23.547 35.492 24.1914 35.8316 24.9088L36.1147 25.5167V29.9304C36.1147 33.9914 36.092 34.3805 35.8996 34.8425C35.5826 35.5842 34.9259 36.3016 34.2467 36.6542C33.3183 37.1162 33.2844 37.1041 33.2844 36.0706C33.273 33.6023 32.1862 30.9639 30.3182 28.9333L29.5144 28.0579L29.571 26.8299C29.6163 25.8572 29.6842 25.4559 29.8993 24.9817C30.6805 23.2065 32.639 22.4162 34.2467 23.2309ZM25.2803 32.0825C26.2312 32.6053 26.9558 33.4199 27.4313 34.5021C27.7709 35.2559 27.7936 35.414 27.7936 36.5934C27.7936 37.7728 27.7709 37.9309 27.4426 38.6604C26.9784 39.7182 26.1294 40.6301 25.167 41.1286L24.3972 41.5177L19.2347 41.5785L14.0723 41.6393L13.5288 42.0041C11.8646 43.1105 11.7288 45.3721 13.2345 46.7703C13.8798 47.3661 14.2987 47.4147 19.314 47.4147C24.3406 47.4147 24.8727 47.3661 26.6048 46.746C27.6238 46.3812 28.9144 45.5909 29.7521 44.8128C30.3408 44.2656 31.473 42.9281 31.473 42.7701C31.473 42.7336 31.9485 42.7214 32.5258 42.7579C33.4995 42.8187 34.4957 42.6606 35.8769 42.2351L36.1373 42.15L36.0807 44.5696C36.0241 47.3053 35.8769 48.1686 35.0957 50.2842C34.5297 51.8284 33.9976 52.8619 33.0919 54.1507C31.1786 56.8986 28.4389 58.9899 25.3595 60.0599C22.0084 61.2272 17.8422 60.9475 14.5025 59.3182C10.0193 57.1296 6.77008 52.7889 5.70589 47.5363C5.53607 46.6974 5.49079 45.98 5.49079 43.7671C5.49079 40.6058 5.604 39.9614 6.54366 37.9552C7.76635 35.3167 9.74756 33.3835 12.2835 32.3257C13.8572 31.6691 14.2987 31.6204 19.6423 31.6448L24.5104 31.6691L25.2803 32.0825Z" fill="black"/>
<path fill-rule="evenodd" clip-rule="evenodd" d="M62.7904 50.0607C65.0235 50.0607 66.7603 49.2102 68.0009 47.8996V49.5646H73.6721V31.4961H68.0009V33.1611C66.7603 31.815 65.0235 31 62.7904 31C57.8991 31 54 35.0389 54 40.5304C54 46.0218 57.899 50.0607 62.7904 50.0607ZM63.8184 45.0297C61.3726 45.0297 59.6004 43.2229 59.6004 40.4949C59.6004 37.8023 61.3726 36.0308 63.8184 36.0308C66.2641 36.0308 68.1427 37.8023 68.1427 40.4949C68.1427 43.2229 66.2641 45.0297 63.8184 45.0297H63.8184ZM88.807 31C86.574 31 84.8372 31.815 83.5965 33.1611V31.4961H77.9253V57.0046H83.5965V47.8996C84.8372 49.2102 86.574 50.0607 88.807 50.0607C93.6985 50.0607 97.5975 46.0218 97.5975 40.5304C97.5975 35.0389 93.6985 31 88.807 31ZM87.779 45.0297C85.3333 45.0297 83.4547 43.2229 83.4547 40.4949C83.4547 37.8023 85.3333 36.0308 87.779 36.0308C90.2247 36.0308 91.997 37.8023 91.997 40.4949C91.997 43.2229 90.2249 45.0297 87.779 45.0297ZM109.648 50.0607C114.469 50.0607 117.517 47.2264 118.474 44.9942L113.37 43.5063C112.768 44.6046 111.669 45.3486 109.755 45.3486C106.848 45.3486 105.608 43.9314 105.253 42.2309H118.616C118.723 41.6287 118.758 40.991 118.758 40.3531C118.758 35.1452 115.284 31 109.294 31C103.516 31 99.7237 35.1452 99.7237 40.5656C99.7237 46.1988 103.765 50.0607 109.648 50.0607ZM105.253 38.8298C105.501 37.3064 106.919 35.7474 109.259 35.7474C111.598 35.7474 113.051 37.2001 113.229 38.8298H105.253ZM138.713 49.5646L132.191 40.4594L138.43 31.4961H132.085L128.824 36.1726L125.563 31.4961H119.218L125.457 40.4594L118.935 49.5646H125.315L128.824 44.6401L132.333 49.5646H138.713ZM152.715 31.4961V33.1611C151.403 31.744 149.702 31 147.717 31C142.577 31 138.891 34.6846 138.891 40.176C138.891 45.3133 142.577 49.352 147.717 49.352C149.702 49.352 151.403 48.608 152.715 47.1909V48.9269C152.715 51.1943 151.545 52.8949 149.028 52.8949C147.079 52.8949 145.803 52.2219 145.023 51.0173L140.131 52.7886C141.62 55.4811 144.385 57.5007 148.886 57.5007C154.699 57.5007 158.386 53.9577 158.386 48.8914V31.4961H152.715ZM148.709 44.2857C146.193 44.2857 144.491 42.656 144.491 40.176C144.491 37.696 146.193 36.0663 148.709 36.0663C151.19 36.0663 152.856 37.696 152.856 40.176C152.856 42.656 151.19 44.2857 148.709 44.2857ZM171.288 50.0607C176.924 50.0607 181 45.951 181 40.5304C181 35.1097 176.924 31 171.288 31C165.652 31 161.576 35.1097 161.576 40.5304C161.576 45.951 165.652 50.0607 171.288 50.0607ZM171.288 44.9589C168.7 44.9589 167.07 43.0811 167.07 40.5304C167.07 37.9796 168.7 36.1018 171.288 36.1018C173.875 36.1018 175.506 37.9794 175.506 40.5304C175.506 43.0813 173.875 44.9589 171.288 44.9589V44.9589Z" fill="#151515"/>
</svg>
