<svg width="9" height="7" viewBox="0 0 9 7" fill="none" xmlns="http://www.w3.org/2000/svg">
<path d="M9 0.00392282C8.60825 0.267433 8.1745 0.468976 7.71545 0.60079C7.46908 0.330644 7.14164 0.139171 6.77742 0.0522676C6.41321 -0.0346355 6.02979 -0.0127756 5.67903 0.114891C5.32827 0.242557 5.02709 0.46987 4.81622 0.766086C4.60535 1.0623 4.49497 1.41313 4.5 1.77112V2.16123C3.78108 2.179 3.0687 2.02696 2.42632 1.71863C1.78394 1.4103 1.23149 0.955258 0.818182 0.394032C0.818182 0.394032 -0.818182 3.90502 2.86364 5.46546C2.02112 6.01082 1.01747 6.28427 0 6.24567C3.68182 8.19622 8.18182 6.24567 8.18182 1.75942C8.18144 1.65075 8.17049 1.54236 8.14909 1.43562C8.56661 1.04298 8.86125 0.547233 9 0.00392282Z" fill="#D7D7D7"/>
</svg>
