<?xml version="1.0" standalone="no"?>
<!DOCTYPE svg PUBLIC "-//W3C//DTD SVG 20010904//EN"
 "http://www.w3.org/TR/2001/REC-SVG-20010904/DTD/svg10.dtd">
<svg version="1.0" xmlns="http://www.w3.org/2000/svg"
 width="1600.000000pt" height="602.000000pt" viewBox="0 0 1600.000000 602.000000"
 preserveAspectRatio="xMidYMid meet">

<g transform="translate(0.000000,602.000000) scale(0.100000,-0.100000)"
fill="#000000" stroke="none">
<path d="M732 5724 c-111 -32 -140 -45 -219 -97 -85 -55 -170 -139 -227 -225
-48 -74 -75 -140 -106 -261 -20 -78 -20 -103 -20 -1631 0 -908 4 -1569 9
-1593 5 -23 19 -96 32 -162 62 -337 226 -655 466 -906 326 -340 716 -525 1201
-570 290 -27 647 41 927 177 487 236 849 677 980 1194 14 55 34 161 45 236 20
129 20 174 17 972 -3 816 -4 839 -24 902 -56 175 -114 272 -223 373 -164 152
-342 216 -567 204 -126 -6 -213 -30 -322 -88 l-74 -40 -16 23 c-61 88 -204
195 -322 241 -175 69 -394 70 -571 2 -17 -7 -18 11 -18 281 0 300 -7 378 -48
497 -54 162 -212 337 -380 421 -154 77 -378 98 -540 50z m316 -471 c51 -21
122 -92 148 -148 l24 -50 0 -736 0 -736 -95 -31 c-152 -50 -319 -142 -452
-249 l-33 -26 0 879 c0 809 1 883 17 927 55 154 239 234 391 170z m1093 -1235
c52 -31 89 -68 120 -123 19 -33 24 -58 27 -152 l4 -113 -292 0 -293 0 5 104
c5 117 22 163 86 229 65 68 117 88 223 83 61 -2 85 -8 120 -28z m1044 -179
c56 -26 110 -79 140 -138 l25 -50 0 -363 c0 -334 -2 -366 -19 -404 -28 -61
-86 -120 -146 -149 -82 -38 -85 -37 -85 48 -1 203 -97 420 -262 587 l-71 72 5
101 c4 80 10 113 29 152 69 146 242 211 384 144z m-792 -728 c84 -43 148 -110
190 -199 30 -62 32 -75 32 -172 0 -97 -2 -110 -31 -170 -41 -87 -116 -162
-201 -203 l-68 -32 -456 -5 -456 -5 -48 -30 c-147 -91 -159 -277 -26 -392 57
-49 94 -53 537 -53 444 0 491 4 644 55 90 30 204 95 278 159 52 45 152 155
152 168 0 3 42 4 93 1 86 -5 174 8 296 43 l23 7 -5 -199 c-5 -225 -18 -296
-87 -470 -50 -127 -97 -212 -177 -318 -169 -226 -411 -398 -683 -486 -296 -96
-664 -73 -959 61 -396 180 -683 537 -777 969 -15 69 -19 128 -19 310 0 260 10
313 93 478 108 217 283 376 507 463 139 54 178 58 650 56 l430 -2 68 -34z"/>
<path d="M9770 4020 l0 -390 -52 41 c-59 46 -118 78 -198 105 -44 15 -83 19
-190 18 -119 0 -145 -3 -215 -27 -113 -37 -198 -90 -286 -177 -156 -156 -232
-347 -232 -590 0 -197 39 -334 139 -487 124 -187 321 -304 540 -319 167 -12
294 22 419 111 l75 54 0 -64 0 -65 240 0 240 0 0 1090 0 1090 -240 0 -240 0 0
-390z m-282 -650 c200 -38 322 -219 291 -435 -36 -258 -292 -394 -526 -280
-204 100 -254 434 -91 611 48 52 100 82 173 100 63 16 90 16 153 4z"/>
<path d="M13480 4019 l0 -390 -47 40 c-98 82 -203 120 -353 128 -231 11 -441
-79 -585 -254 -210 -254 -250 -629 -100 -938 94 -195 263 -337 465 -392 90
-24 282 -24 365 1 70 21 153 65 212 112 l42 35 3 -63 3 -63 238 -3 237 -2 0
1090 0 1090 -240 0 -240 0 0 -391z m-202 -671 c68 -25 147 -101 180 -170 69
-148 39 -351 -67 -457 -141 -141 -374 -142 -510 -2 -75 77 -96 139 -96 281 0
103 3 121 26 170 84 179 273 251 467 178z"/>
<path d="M7630 3790 c-100 -18 -207 -72 -289 -145 l-41 -37 0 76 0 76 -240 0
-240 0 0 -765 0 -765 239 0 240 0 3 438 c3 425 4 438 26 492 32 80 74 132 132
164 127 69 290 32 356 -80 48 -82 53 -141 54 -597 l0 -417 238 2 237 3 3 440
c3 461 -4 602 -37 717 -61 212 -203 350 -407 393 -73 16 -199 18 -274 5z"/>
<path d="M11179 3789 c-175 -25 -370 -135 -474 -267 -55 -68 -128 -214 -151
-297 -25 -92 -30 -325 -9 -420 66 -299 266 -504 570 -586 119 -32 356 -33 473
-1 168 45 286 115 398 235 56 60 120 154 111 163 -1 1 -96 30 -211 63 l-208
61 -47 -50 c-73 -77 -122 -95 -266 -95 -95 0 -131 4 -174 20 -91 34 -165 113
-192 207 l-8 28 559 0 c499 0 558 2 564 16 12 30 6 260 -9 328 -34 159 -97
279 -204 385 -42 42 -105 93 -141 114 -154 89 -378 126 -581 96z m257 -404
c104 -31 180 -104 209 -199 l14 -46 -334 0 -334 0 14 41 c39 110 117 181 230
209 51 13 149 11 201 -5z"/>
<path d="M14885 3785 c-314 -58 -544 -272 -626 -580 -29 -112 -30 -307 0 -420
72 -275 268 -477 546 -561 80 -24 107 -27 240 -28 162 0 231 12 350 62 163 69
312 209 388 364 68 138 81 196 81 373 0 171 -11 228 -73 360 -152 324 -525
501 -906 430z m327 -449 c71 -34 139 -108 169 -184 32 -80 32 -232 0 -314 -79
-204 -343 -282 -529 -157 -102 67 -152 171 -152 314 0 142 49 248 144 313 72
48 127 62 226 58 67 -2 98 -9 142 -30z"/>
<path d="M4940 3251 c0 -418 3 -523 15 -583 57 -270 203 -422 454 -468 183
-34 387 20 519 135 l52 47 0 -76 0 -76 240 0 240 0 0 765 0 765 -240 0 -239 0
-3 -442 c-3 -426 -4 -445 -24 -495 -31 -74 -74 -124 -136 -158 -46 -26 -63
-30 -133 -29 -94 0 -144 21 -197 83 -66 77 -68 95 -68 594 l0 447 -240 0 -240
0 0 -509z"/>
</g>
</svg>
