<svg width="42" height="67" viewBox="0 0 42 67" fill="none" xmlns="http://www.w3.org/2000/svg">
<g clip-path="url(#clip0)">
<path d="M4.17188 31.3266V5.96708L6.94982 4.47534H11.1167C12.2279 4.47534 13.4317 5.46983 13.8947 5.96708V26.8514L12.5057 28.3431L6.94982 31.3266H4.17188Z" fill="#C5FDE2"/>
<path d="M6.47573 0.311501C5.21908 0.700583 4.89076 0.858647 3.99639 1.4909C3.03408 2.15964 2.07178 3.18098 1.42647 4.22664C0.883054 5.12639 0.577382 5.92887 0.226424 7.40009C0 8.34848 0 8.65246 0 27.2311C0 38.2713 0.0452848 46.3083 0.101891 46.6001C0.158497 46.8798 0.316994 47.7674 0.46417 48.5698C1.16608 52.6674 3.02276 56.5339 5.73985 59.5857C9.43057 63.7197 13.8458 65.9691 19.3366 66.5162C22.6198 66.8445 26.6614 66.0177 29.8314 64.3641C35.3448 61.4947 39.4431 56.1326 40.9262 49.8465C41.0847 49.1778 41.3111 47.8889 41.4356 46.977C41.6621 45.4085 41.662 44.8614 41.6281 35.1587C41.5941 25.2371 41.5828 24.9574 41.3564 24.1914C40.7224 22.0636 40.0658 20.8842 38.8317 19.6562C36.9751 17.808 34.9599 17.0299 32.4126 17.1758C30.9861 17.2487 30.0012 17.5405 28.7672 18.2457L27.9294 18.7321L27.7483 18.4524C27.0577 17.3825 25.4388 16.0815 24.1029 15.5222C22.1216 14.6832 19.6423 14.6711 17.6384 15.4979C17.446 15.583 17.4347 15.3641 17.4347 12.0812C17.4347 8.43359 17.3554 7.4852 16.8912 6.0383C16.2799 4.06858 14.4911 1.94078 12.5892 0.919443C10.8457 -0.0167875 8.30977 -0.272123 6.47573 0.311501ZM10.0532 6.0383C10.6306 6.29364 11.4344 7.15691 11.7288 7.83781L12.0005 8.44576V17.3946V26.3435L10.925 26.7204C9.20414 27.3284 7.3135 28.447 5.80778 29.748L5.43418 30.0641V19.3765C5.43418 9.54004 5.4455 8.6403 5.62664 8.1053C6.24931 6.23284 8.33241 5.26014 10.0532 6.0383ZM22.4273 21.0544C23.016 21.4314 23.4349 21.8812 23.7859 22.55C24.001 22.9512 24.0576 23.2552 24.0915 24.3981L24.1368 25.7721H20.831H17.5139L17.5705 24.5075C17.6271 23.085 17.8196 22.5256 18.5441 21.7232C19.28 20.8964 19.8687 20.6532 21.0688 20.714C21.7594 20.7383 22.0311 20.8113 22.4273 21.0544ZM34.2467 23.2309C34.8806 23.547 35.492 24.1914 35.8316 24.9088L36.1147 25.5167V29.9304C36.1147 33.9914 36.092 34.3805 35.8996 34.8425C35.5826 35.5842 34.9259 36.3016 34.2467 36.6542C33.3183 37.1162 33.2844 37.1041 33.2844 36.0706C33.273 33.6023 32.1862 30.9639 30.3182 28.9333L29.5144 28.0579L29.571 26.8299C29.6163 25.8572 29.6842 25.4559 29.8993 24.9817C30.6805 23.2065 32.639 22.4162 34.2467 23.2309ZM25.2803 32.0825C26.2312 32.6053 26.9558 33.4199 27.4313 34.5021C27.7709 35.2559 27.7936 35.414 27.7936 36.5934C27.7936 37.7728 27.7709 37.9309 27.4426 38.6604C26.9784 39.7182 26.1294 40.6301 25.167 41.1286L24.3972 41.5177L19.2347 41.5785L14.0723 41.6393L13.5288 42.0041C11.8646 43.1105 11.7288 45.3721 13.2345 46.7703C13.8798 47.3661 14.2987 47.4147 19.314 47.4147C24.3406 47.4147 24.8727 47.3661 26.6048 46.746C27.6238 46.3812 28.9144 45.5909 29.7521 44.8128C30.3408 44.2656 31.473 42.9281 31.473 42.7701C31.473 42.7336 31.9485 42.7214 32.5258 42.7579C33.4995 42.8187 34.4957 42.6606 35.8769 42.2351L36.1373 42.15L36.0807 44.5696C36.0241 47.3053 35.8769 48.1686 35.0957 50.2842C34.5297 51.8284 33.9976 52.8619 33.0919 54.1507C31.1786 56.8986 28.4389 58.9899 25.3595 60.0599C22.0084 61.2272 17.8422 60.9475 14.5025 59.3182C10.0193 57.1296 6.77008 52.7889 5.70589 47.5363C5.53607 46.6974 5.49079 45.98 5.49079 43.7671C5.49079 40.6058 5.604 39.9614 6.54366 37.9552C7.76635 35.3167 9.74756 33.3835 12.2835 32.3257C13.8572 31.6691 14.2987 31.6204 19.6423 31.6448L24.5104 31.6691L25.2803 32.0825Z" fill="black"/>
</g>
<defs>
<clipPath id="clip0">
<rect width="41.6444" height="66.5872" fill="white"/>
</clipPath>
</defs>
</svg>
