<svg width="64" height="20" viewBox="0 0 64 20" fill="none" xmlns="http://www.w3.org/2000/svg">
<path d="M18.375 13.3333V6.66666C18.3747 6.37439 18.2937 6.08733 18.1401 5.83429C17.9865 5.58125 17.7658 5.37113 17.5 5.22499L11.375 1.89166C11.109 1.74538 10.8072 1.66837 10.5 1.66837C10.1928 1.66837 9.89104 1.74538 9.625 1.89166L3.5 5.22499C3.23423 5.37113 3.01348 5.58125 2.8599 5.83429C2.70632 6.08733 2.62531 6.37439 2.625 6.66666V13.3333C2.62531 13.6256 2.70632 13.9126 2.8599 14.1657C3.01348 14.4187 3.23423 14.6289 3.5 14.775L9.625 18.1083C9.89104 18.2546 10.1928 18.3316 10.5 18.3316C10.8072 18.3316 11.109 18.2546 11.375 18.1083L17.5 14.775C17.7658 14.6289 17.9865 14.4187 18.1401 14.1657C18.2937 13.9126 18.3747 13.6256 18.375 13.3333Z" stroke="black" stroke-width="1.5" stroke-linecap="round" stroke-linejoin="round"/>
<path d="M2.86124 5.80002L10.5 10.0083L18.1387 5.80002" stroke="black" stroke-width="1.5" stroke-linecap="round" stroke-linejoin="round"/>
<path d="M10.5 18.4V10" stroke="black" stroke-width="1.5" stroke-linecap="round" stroke-linejoin="round"/>
<path d="M20.46 14L25.07 6.9H26.09L27.69 14H26.56L26.15 12.14H22.98L21.78 14H20.46ZM25.34 8.49L23.65 11.1H25.92L25.34 8.49ZM28.5247 14L29.5847 9H30.6847L30.5047 9.81C30.6514 9.53 30.8614 9.31667 31.1347 9.17C31.408 9.02333 31.7014 8.95 32.0147 8.95C32.1747 8.95 32.3114 8.96333 32.4247 8.99L32.1947 10.12C32.0147 10.06 31.8414 10.03 31.6747 10.03C31.3347 10.03 31.018 10.1667 30.7247 10.44C30.438 10.7067 30.2414 11.08 30.1347 11.56L29.6247 14H28.5247ZM34.633 14.05C34.0864 14.05 33.6697 13.8767 33.383 13.53C33.103 13.1833 33.0264 12.7033 33.153 12.09L33.603 9.98H32.573L32.773 9H33.813L34.113 7.61H35.213L34.913 9H36.343L36.133 9.98H34.703L34.243 12.17C34.1297 12.7633 34.3697 13.06 34.963 13.06C35.143 13.06 35.3197 13.0367 35.493 12.99L35.293 13.97C35.093 14.0233 34.873 14.05 34.633 14.05ZM40.0777 14.12C39.0643 14.12 38.2477 13.8033 37.6277 13.17C37.0143 12.5367 36.7077 11.75 36.7077 10.81C36.7077 10.07 36.8677 9.39667 37.1877 8.79C37.5077 8.18333 37.9777 7.69667 38.5977 7.33C39.2243 6.96333 39.9443 6.78 40.7577 6.78C41.5977 6.78 42.3077 7.01667 42.8877 7.49C43.4743 7.95667 43.841 8.55333 43.9877 9.28H42.7277C42.5877 8.86 42.3377 8.52667 41.9777 8.28C41.6243 8.03333 41.1843 7.91 40.6577 7.91C39.8777 7.91 39.221 8.18 38.6877 8.72C38.161 9.26 37.8977 9.92 37.8977 10.7C37.8977 11.3867 38.0977 11.94 38.4977 12.36C38.9043 12.78 39.4677 12.99 40.1877 12.99C40.6943 12.99 41.1477 12.87 41.5477 12.63C41.9477 12.3833 42.2677 12.0467 42.5077 11.62H43.7677C43.4943 12.38 43.0377 12.9867 42.3977 13.44C41.7643 13.8933 40.991 14.12 40.0777 14.12ZM46.9371 13.08C47.3971 13.08 47.7804 12.9167 48.0871 12.59C48.4004 12.2633 48.5571 11.8633 48.5571 11.39C48.5571 10.9367 48.4304 10.58 48.1771 10.32C47.9304 10.0533 47.5938 9.92 47.1671 9.92C46.7071 9.92 46.3238 10.0833 46.0171 10.41C45.7104 10.7367 45.5571 11.1367 45.5571 11.61C45.5571 12.07 45.6804 12.43 45.9271 12.69C46.1804 12.95 46.5171 13.08 46.9371 13.08ZM46.8471 14.11C46.0871 14.11 45.4938 13.8767 45.0671 13.41C44.6471 12.9367 44.4371 12.3667 44.4371 11.7C44.4371 10.9067 44.6971 10.2433 45.2171 9.71C45.7371 9.17 46.4171 8.9 47.2571 8.9C48.0171 8.9 48.6071 9.13333 49.0271 9.6C49.4538 10.0667 49.6671 10.6333 49.6671 11.3C49.6671 12.0933 49.4071 12.76 48.8871 13.3C48.3738 13.84 47.6938 14.11 46.8471 14.11ZM52.2925 7.91C52.0858 7.91 51.9092 7.84 51.7625 7.7C51.6225 7.55333 51.5525 7.37667 51.5525 7.17C51.5525 6.97 51.6225 6.8 51.7625 6.66C51.9092 6.51333 52.0858 6.44 52.2925 6.44C52.4925 6.44 52.6625 6.51333 52.8025 6.66C52.9492 6.8 53.0225 6.97 53.0225 7.17C53.0225 7.37667 52.9492 7.55333 52.8025 7.7C52.6625 7.84 52.4925 7.91 52.2925 7.91ZM50.2825 14L51.3425 9H52.4425L51.3825 14H50.2825ZM52.8704 14L53.9304 9H55.0304L54.9004 9.59C55.2804 9.13 55.8004 8.9 56.4604 8.9C57.0471 8.9 57.4837 9.12333 57.7704 9.57C58.0637 10.0167 58.1404 10.5467 58.0004 11.16L57.3904 14H56.2904L56.8804 11.22C56.9737 10.8067 56.9437 10.4833 56.7904 10.25C56.6437 10.0167 56.3971 9.9 56.0504 9.9C55.6771 9.9 55.3537 10.03 55.0804 10.29C54.8137 10.55 54.6237 10.9333 54.5104 11.44L53.9704 14H52.8704ZM62.1981 13.69C61.8515 13.9633 61.3748 14.1 60.7681 14.1C60.1615 14.1 59.6648 13.95 59.2781 13.65C58.8915 13.35 58.6981 12.96 58.6981 12.48H59.8281C59.8415 12.72 59.9415 12.9033 60.1281 13.03C60.3148 13.1567 60.5448 13.22 60.8181 13.22C61.0448 13.22 61.2348 13.1667 61.3881 13.06C61.5415 12.9533 61.6181 12.8233 61.6181 12.67C61.6181 12.37 61.4081 12.1467 60.9881 12L60.3981 11.79C59.6715 11.53 59.3081 11.0633 59.3081 10.39C59.3081 9.92333 59.4748 9.56 59.8081 9.3C60.1415 9.03333 60.6015 8.9 61.1881 8.9C61.7015 8.9 62.1315 9.04667 62.4781 9.34C62.8248 9.62667 63.0115 9.98 63.0381 10.4H61.9381C61.9115 10.2 61.8215 10.0467 61.6681 9.94C61.5215 9.83333 61.3448 9.78 61.1381 9.78C60.9381 9.78 60.7681 9.83 60.6281 9.93C60.4948 10.0233 60.4281 10.1467 60.4281 10.3C60.4281 10.58 60.6015 10.7833 60.9481 10.91L61.4781 11.1C62.3115 11.4067 62.7281 11.8967 62.7281 12.57C62.7281 13.0433 62.5515 13.4167 62.1981 13.69Z" fill="black"/>
</svg>
